<?xml version="1.0" encoding="UTF-8" standalone="no"?>
<svg width="195px" height="26px" viewBox="0 0 195 26" version="1.1" xmlns="http://www.w3.org/2000/svg" xmlns:xlink="http://www.w3.org/1999/xlink" xmlns:sketch="http://www.bohemiancoding.com/sketch/ns">
    <!-- Generator: Sketch 3.4.4 (17249) - http://www.bohemiancoding.com/sketch -->
    <title>logo</title>
    <desc>Created with Sketch.</desc>
    <defs>
        <path id="path-1" d="M0,0.75 L194.243,0.75 L194.243,26 L0,26"></path>
        <path id="path-3" d="M0,0.75 L194.243,0.75 L194.243,26 L0,26"></path>
    </defs>
    <g id="Page-1" stroke="none" stroke-width="1" fill="none" fill-rule="evenodd" sketch:type="MSPage">
        <g id="Desktop-HD" sketch:type="MSArtboardGroup" transform="translate(-244.000000, -49.000000)">
            <g id="logo" sketch:type="MSLayerGroup" transform="translate(244.000000, 49.000000)">
                <g id="Group-3">
                    <mask id="mask-2" sketch:name="Clip 2" fill="white">
                        <use xlink:href="#path-1"></use>
                    </mask>
                    <g id="Clip-2"></g>
                    <path d="M9.8686,8.7603 C8.4816,8.7603 6.4336,9.4713 5.3886,9.9023 C5.2366,9.9653 5.1386,10.1143 5.1386,10.2783 L5.1386,16.7423 C5.1386,16.9183 5.2506,17.0733 5.4176,17.1283 C6.3456,17.4293 8.4426,17.9623 9.8686,17.9623 C11.7846,17.9623 12.5976,17.1213 12.5976,13.3453 C12.5976,9.5713 11.8126,8.7603 9.8686,8.7603 M10.9426,20.4283 C8.7456,20.4283 6.9096,19.8433 5.6836,19.4033 C5.4176,19.3073 5.1386,19.5043 5.1386,19.7873 L5.1386,19.7903 C5.1386,20.0153 4.9556,20.1983 4.7306,20.1983 L0.4406,20.1983 C0.2156,20.1983 0.0326,20.0153 0.0326,19.7903 L0.0326,18.1073 C0.0326,17.8823 0.2156,17.6993 0.4406,17.6993 L1.6546,17.6993 C1.8806,17.6993 2.0626,17.5173 2.0626,17.2913 L2.0626,3.6823 C2.0626,3.4573 1.8806,3.2743 1.6546,3.2743 L0.4076,3.2743 C0.1826,3.2743 -0.0004,3.0923 -0.0004,2.8663 L-0.0004,1.1583 C-0.0004,0.9333 0.1826,0.7503 0.4076,0.7503 L4.7306,0.7503 C4.9556,0.7503 5.1386,0.9333 5.1386,1.1583 L5.1386,7.2173 C5.1386,7.5103 5.4386,7.7093 5.7076,7.5923 C6.9386,7.0543 9.3096,6.2363 11.0886,6.2363 C13.5266,6.2363 15.7616,7.0193 15.7616,13.2893 C15.7616,19.5863 13.3826,20.4283 10.9426,20.4283" id="Fill-1" fill="#8F918A" sketch:type="MSShapeGroup" mask="url(#mask-2)"></path>
                </g>
                <path d="M37.8938,20.4576 C36.1068,20.4576 34.0508,20.2606 32.2658,19.8686 C31.9928,19.8086 31.7978,19.5686 31.7978,19.2896 L31.7978,16.1136 C31.7978,15.7876 32.0628,15.5226 32.3888,15.5226 L34.1388,15.5226 C34.4658,15.5226 34.7308,15.7876 34.7308,16.1136 L34.7308,17.5076 C34.7308,17.8026 34.9498,18.0536 35.2428,18.0936 C36.3008,18.2386 37.1378,18.2826 37.8938,18.2826 C41.1428,18.2826 41.4058,17.8726 41.4058,16.2186 C41.4058,14.8556 40.7378,14.7096 37.8068,14.4476 C32.9868,13.9826 31.6238,13.6656 31.6238,10.1536 C31.6238,7.2516 33.5118,6.0906 37.7488,6.0906 C39.3358,6.0906 41.4948,6.2896 43.3258,6.8276 C43.5798,6.9016 43.7558,7.1326 43.7558,7.3976 L43.7558,10.1996 C43.7558,10.5266 43.4908,10.7906 43.1648,10.7906 L41.4138,10.7906 C41.0878,10.7906 40.8228,10.5266 40.8228,10.1996 L40.8228,9.0726 C40.8228,8.7866 40.6178,8.5396 40.3368,8.4896 C39.3288,8.3106 38.3948,8.2676 37.7198,8.2676 C35.2528,8.2676 34.6718,8.7006 34.6718,10.0096 C34.6718,11.6326 35.1348,11.6046 38.6488,11.8936 C43.1758,12.2446 44.5108,12.9086 44.5108,16.0746 C44.5108,19.7596 42.4798,20.4576 37.8938,20.4576" id="Fill-4" fill="#8F918A" sketch:type="MSShapeGroup"></path>
                <path d="M23.7241,18.252 C25.6641,18.252 27.1671,17.574 27.3371,14.382 C27.3551,14.041 27.0881,13.753 26.7471,13.753 L20.7531,13.753 C20.4191,13.753 20.1531,14.029 20.1621,14.363 C20.2541,17.945 21.2181,18.252 23.7241,18.252 L23.7241,18.252 Z M26.7651,11.692 C27.1331,11.692 27.4071,11.361 27.3491,10.998 C26.8681,7.99 23.7571,8.265 23.2021,8.268 C22.1871,8.275 21.4131,8.345 20.7731,8.473 C20.4971,8.529 20.2991,8.771 20.2991,9.053 L20.2991,9.383 C20.2991,9.609 20.1161,9.719 19.8901,9.719 L17.9031,9.719 C17.5761,9.719 17.3111,9.454 17.3111,9.128 L17.3111,7.246 C17.3111,6.973 17.4981,6.736 17.7631,6.671 C18.9951,6.368 20.8211,6.006 23.2591,6.006 C28.1331,6.006 30.5441,7.833 30.5441,13.259 C30.5441,18.831 27.9641,20.514 23.6371,20.514 C18.7601,20.514 17.0491,19.064 17.0491,14.132 L17.0491,12.283 C17.0491,11.956 17.3141,11.692 17.6401,11.692 L26.7651,11.692 Z" id="Fill-6" fill="#8F918A" sketch:type="MSShapeGroup"></path>
                <path d="M52.6195,8.2678 C50.7425,8.2678 49.5655,8.7738 49.1065,10.9858 C49.0265,11.3728 49.2915,11.6918 49.6865,11.6918 L55.5625,11.6918 C55.9175,11.6918 56.1835,11.4008 56.1515,11.0478 C55.9505,8.8278 55.0425,8.2678 52.6195,8.2678 L52.6195,8.2678 Z M49.5565,13.7528 C49.2085,13.7528 48.9385,14.0528 48.9675,14.3998 C49.2335,17.5848 50.9045,18.2518 53.1425,18.2518 C54.1565,18.2518 54.9335,18.1788 55.5735,18.0458 C55.8475,17.9898 56.0435,17.7468 56.0435,17.4668 L56.0435,16.1138 C56.0435,15.7868 56.3085,15.5228 56.6355,15.5228 L58.4415,15.5228 C58.7675,15.5228 59.0325,15.7868 59.0325,16.1138 L59.0325,19.2728 C59.0325,19.5458 58.8465,19.7818 58.5815,19.8478 C57.3495,20.1518 55.5235,20.5138 53.0855,20.5138 C48.2075,20.5138 45.8005,18.6858 45.8005,13.2588 C45.8005,7.6868 48.3805,6.0028 52.7055,6.0028 C57.5805,6.0028 59.2945,7.4568 59.2945,12.3878 L59.2945,13.1608 C59.2945,13.4878 59.0295,13.7528 58.7025,13.7528 L49.5565,13.7528 Z" id="Fill-8" fill="#8F918A" sketch:type="MSShapeGroup"></path>
                <path d="M80.3237,19.6907 L80.3237,18.2067 C80.3237,17.9267 80.5507,17.6997 80.8307,17.6997 L81.6737,17.6997 C81.9547,17.6997 82.1817,17.4727 82.1817,17.1927 L82.1817,10.8197 C82.1817,9.3697 81.8617,8.7887 80.1497,8.7887 C78.8447,8.7887 77.0547,9.3507 75.8927,9.8707 C75.7107,9.9517 75.5957,10.1337 75.5957,10.3327 L75.5957,17.1927 C75.5957,17.4727 75.8227,17.6997 76.1027,17.6997 L76.9727,17.6997 C77.2527,17.6997 77.4797,17.9267 77.4797,18.2067 L77.4797,19.6907 C77.4797,19.9707 77.2527,20.1977 76.9727,20.1977 L71.1377,20.1977 C70.8577,20.1977 70.6307,19.9707 70.6307,19.6907 L70.6307,18.2067 C70.6307,17.9267 70.8577,17.6997 71.1377,17.6997 L72.0097,17.6997 C72.2897,17.6997 72.5167,17.4727 72.5167,17.1927 L72.5167,10.8197 C72.5167,9.3697 72.1687,8.7887 70.4577,8.7887 C69.1517,8.7887 67.3797,9.3517 66.2007,9.8717 C66.0167,9.9527 65.8997,10.1347 65.8997,10.3357 L65.8997,17.1927 C65.8997,17.4727 66.1267,17.6997 66.4067,17.6997 L67.2797,17.6997 C67.5607,17.6997 67.7877,17.9267 67.7877,18.2067 L67.7877,19.6907 C67.7877,19.9707 67.5607,20.1977 67.2797,20.1977 L61.2997,20.1977 C61.0197,20.1977 60.7927,19.9707 60.7927,19.6907 L60.7927,18.2067 C60.7927,17.9267 61.0197,17.6997 61.2997,17.6997 L62.3167,17.6997 C62.5967,17.6997 62.8237,17.4727 62.8237,17.1927 L62.8237,9.5867 C62.8237,9.3067 62.5967,9.0797 62.3167,9.0797 L61.2997,9.0797 C61.0197,9.0797 60.7927,8.8527 60.7927,8.5727 L60.7927,7.0617 C60.7927,6.7817 61.0197,6.5547 61.2997,6.5547 L65.3927,6.5547 C65.6727,6.5547 65.8997,6.7817 65.8997,7.0617 L65.8997,7.0617 C65.8997,7.4287 66.2757,7.6727 66.6117,7.5257 C68.0037,6.9127 69.8727,6.2367 71.7637,6.2367 C73.3767,6.2367 74.4687,6.6857 75.0437,7.6087 C75.1777,7.8247 75.4517,7.9067 75.6817,7.7987 C77.5317,6.9327 79.5157,6.2367 81.4287,6.2367 C84.0397,6.2367 85.2577,7.3107 85.2577,10.0097 L85.2577,17.1927 C85.2577,17.4727 85.4847,17.6997 85.7647,17.6997 L86.7827,17.6997 C87.0637,17.6997 87.2907,17.9267 87.2907,18.2067 L87.2907,19.6907 C87.2907,19.9707 87.0637,20.1977 86.7827,20.1977 L80.8307,20.1977 C80.5507,20.1977 80.3237,19.9707 80.3237,19.6907" id="Fill-10" fill="#8F918A" sketch:type="MSShapeGroup"></path>
                <path d="M98.7299,19.6893 L98.7299,18.2083 C98.7299,17.9273 98.9579,17.6993 99.2389,17.6993 L100.2239,17.6993 C100.5039,17.6993 100.7319,17.4723 100.7319,17.1913 L100.7319,10.8193 C100.7319,9.3693 100.2979,8.7883 98.5579,8.7883 C97.2509,8.7883 95.3849,9.3513 94.1889,9.8713 C94.0029,9.9523 93.8859,10.1353 93.8859,10.3373 L93.8859,17.1913 C93.8859,17.4723 94.1129,17.6993 94.3939,17.6993 L95.3769,17.6993 C95.6579,17.6993 95.8859,17.9273 95.8859,18.2083 L95.8859,19.6893 C95.8859,19.9703 95.6579,20.1983 95.3769,20.1983 L89.2839,20.1983 C89.0029,20.1983 88.7759,19.9703 88.7759,19.6893 L88.7759,18.2083 C88.7759,17.9273 89.0029,17.6993 89.2839,17.6993 L90.2979,17.6993 C90.5789,17.6993 90.8069,17.4723 90.8069,17.1913 L90.8069,9.5883 C90.8069,9.3073 90.5789,9.0793 90.2979,9.0793 L89.2839,9.0793 C89.0029,9.0793 88.7759,8.8523 88.7759,8.5713 L88.7759,7.0633 C88.7759,6.7823 89.0029,6.5543 89.2839,6.5543 L93.3699,6.5543 C93.6509,6.5543 93.8779,6.7823 93.8779,7.0633 L93.8779,7.0633 C93.8779,7.4293 94.2509,7.6743 94.5869,7.5313 C95.9949,6.9313 98.1179,6.2363 99.8039,6.2363 C102.4459,6.2363 103.8099,7.3103 103.8099,9.9223 L103.8099,17.1913 C103.8099,17.4723 104.0369,17.6993 104.3179,17.6993 L105.3319,17.6993 C105.6129,17.6993 105.8409,17.9273 105.8409,18.2083 L105.8409,19.6893 C105.8409,19.9703 105.6129,20.1983 105.3319,20.1983 L99.2389,20.1983 C98.9579,20.1983 98.7299,19.9703 98.7299,19.6893" id="Fill-12" fill="#8F918A" sketch:type="MSShapeGroup"></path>
                <path d="M111.2405,20.34 C108.8005,20.34 107.7295,19.121 107.7295,16.363 L107.7295,9.671 C107.7295,9.344 107.4645,9.08 107.1385,9.08 L106.4315,9.08 C106.1055,9.08 105.8405,8.815 105.8405,8.488 L105.8405,7.146 C105.8405,6.819 106.1055,6.554 106.4315,6.554 L107.1385,6.554 C107.4645,6.554 107.7295,6.29 107.7295,5.963 L107.7295,2.533 C107.7295,2.206 107.9945,1.941 108.3205,1.941 L110.2425,1.941 C110.5685,1.941 110.8335,2.206 110.8335,2.533 L110.8335,5.963 C110.8335,6.29 111.0985,6.554 111.4255,6.554 L114.0155,6.554 C114.3415,6.554 114.6065,6.819 114.6065,7.146 L114.6065,8.488 C114.6065,8.815 114.3415,9.08 114.0155,9.08 L111.4255,9.08 C111.0985,9.08 110.8335,9.344 110.8335,9.671 L110.8335,15.814 C110.8335,17.438 111.2685,17.757 112.0815,17.757 C112.5785,17.757 113.2145,17.715 114.1455,17.605 C114.4975,17.563 114.8085,17.837 114.8085,18.192 L114.8085,19.565 C114.8085,19.864 114.5855,20.116 114.2895,20.153 C113.1615,20.297 112.0695,20.34 111.2405,20.34" id="Fill-14" fill="#8F918A" sketch:type="MSShapeGroup"></path>
                <g id="Group-18">
                    <mask id="mask-4" sketch:name="Clip 17" fill="white">
                        <use xlink:href="#path-3"></use>
                    </mask>
                    <g id="Clip-17"></g>
                    <path d="M125.7581,8.7603 C124.3701,8.7603 122.3921,9.4443 121.3161,9.8773 C121.1231,9.9553 120.9981,10.1413 120.9981,10.3493 L120.9981,17.1483 C120.9981,17.4083 121.1931,17.6263 121.4521,17.6533 C122.3791,17.7523 124.5051,17.9623 125.7261,17.9623 C127.6431,17.9623 128.4561,17.1213 128.4561,13.3453 C128.4561,9.5713 127.7011,8.7603 125.7581,8.7603 M126.8021,20.4283 C124.8821,20.4283 122.5681,20.2983 121.5381,20.2333 C121.2451,20.2153 120.9981,20.4473 120.9981,20.7413 L120.9981,23.0233 C120.9981,23.3043 121.2261,23.5323 121.5061,23.5323 L122.8111,23.5323 C123.0921,23.5323 123.3191,23.7603 123.3191,24.0413 L123.3191,25.4913 C123.3191,25.7723 123.0921,26.0003 122.8111,26.0003 L116.3961,26.0003 C116.1161,26.0003 115.8881,25.7723 115.8881,25.4913 L115.8881,24.0413 C115.8881,23.7603 116.1161,23.5323 116.3961,23.5323 L117.4101,23.5323 C117.6911,23.5323 117.9191,23.3043 117.9191,23.0233 L117.9191,9.5883 C117.9191,9.3073 117.6911,9.0793 117.4101,9.0793 L116.3961,9.0793 C116.1161,9.0793 115.8881,8.8523 115.8881,8.5713 L115.8881,7.0633 C115.8881,6.7823 116.1161,6.5543 116.3961,6.5543 L120.4891,6.5543 C120.7701,6.5543 120.9981,6.7823 120.9981,7.0633 L120.9981,7.0673 C120.9981,7.4303 121.3661,7.6773 121.7001,7.5373 C122.9571,7.0123 125.1801,6.2363 126.9481,6.2363 C129.3841,6.2363 131.6201,7.0193 131.6201,13.2893 C131.6201,19.5863 129.2381,20.4283 126.8021,20.4283" id="Fill-16" fill="#8F918A" sketch:type="MSShapeGroup" mask="url(#mask-4)"></path>
                </g>
                <path d="M132.7008,19.6065 L132.7008,18.2905 C132.7008,17.9645 132.9658,17.6995 133.2918,17.6995 L134.5728,17.6995 C134.8988,17.6995 135.1638,17.4345 135.1638,17.1085 L135.1638,9.6715 C135.1638,9.3445 134.8988,9.0795 134.5728,9.0795 L133.2918,9.0795 C132.9658,9.0795 132.7008,8.8145 132.7008,8.4885 L132.7008,7.1455 C132.7008,6.8195 132.9658,6.5545 133.2918,6.5545 L137.6508,6.5545 C137.9778,6.5545 138.2418,6.8195 138.2418,7.1455 L138.2418,17.1085 C138.2418,17.4345 138.5068,17.6995 138.8338,17.6995 L141.9718,17.6995 C142.2988,17.6995 142.5628,17.9645 142.5628,18.2905 L142.5628,19.6065 C142.5628,19.9335 142.2988,20.1975 141.9718,20.1975 L133.2918,20.1975 C132.9658,20.1975 132.7008,19.9335 132.7008,19.6065" id="Fill-19" fill="#8F918A" sketch:type="MSShapeGroup"></path>
                <path d="M149.3839,18.4568 C149.3839,18.2308 149.5669,18.0488 149.7919,18.0488 L150.0949,18.0488 C150.4529,18.0488 150.6369,17.6218 150.3919,17.3608 L148.6289,15.4858 C148.4719,15.3178 148.2069,15.3138 148.0439,15.4758 L145.1789,18.3348 L143.4459,20.0778 C143.3689,20.1548 143.2649,20.1978 143.1559,20.1978 L140.5619,20.1978 C140.3369,20.1978 140.1539,20.0148 140.1539,19.7898 L140.1539,18.1078 C140.1539,17.8818 140.3369,17.6998 140.5619,17.6998 L141.6959,17.6998 C141.8059,17.6998 141.9109,17.6558 141.9879,17.5768 L145.9129,13.5738 C146.0679,13.4148 146.0679,13.1618 145.9139,13.0038 L142.2179,9.2028 C142.1409,9.1238 142.0359,9.0798 141.9259,9.0798 L140.7359,9.0798 C140.5109,9.0798 140.3279,8.8968 140.3279,8.6718 L140.3279,6.9628 C140.3279,6.7368 140.5109,6.5548 140.7359,6.5548 L146.7379,6.5548 C146.9639,6.5548 147.1459,6.7368 147.1459,6.9628 L147.1459,8.3248 C147.1459,8.5498 146.9639,8.7328 146.7379,8.7328 L146.6379,8.7328 C146.2809,8.7328 146.0959,9.1578 146.3399,9.4188 L148.2689,11.4838 C148.4319,11.6578 148.7079,11.6568 148.8689,11.4808 L150.7049,9.4718 C150.9439,9.2098 150.7579,8.7878 150.4039,8.7878 C150.1749,8.7878 149.9929,8.6058 149.9929,8.3798 L149.9929,6.9628 C149.9929,6.7368 150.1749,6.5548 150.4009,6.5548 L155.7959,6.5548 C156.0209,6.5548 156.2039,6.7368 156.2039,6.9628 L156.2039,8.6718 C156.2039,8.8968 156.0209,9.0798 155.7959,9.0798 L154.4889,9.0798 C154.3789,9.0798 154.2729,9.1248 154.1959,9.2038 L150.5569,12.9468 C150.4039,13.1048 150.4029,13.3568 150.5569,13.5148 L154.4849,17.5758 C154.5619,17.6548 154.6679,17.6998 154.7789,17.6998 L155.9709,17.6998 C156.1969,17.6998 156.3789,17.8818 156.3789,18.1078 L156.3789,19.7898 C156.3789,20.0148 156.1969,20.1978 155.9709,20.1978 L149.7919,20.1978 C149.5669,20.1978 149.3839,20.0148 149.3839,19.7898 L149.3839,18.4568 Z" id="Fill-21" fill="#8F918A" sketch:type="MSShapeGroup"></path>
                <path d="M164.2779,8.2678 C162.3999,8.2678 161.2219,8.7738 160.7639,10.9868 C160.6879,11.3508 160.9719,11.6918 161.3439,11.6918 L167.2189,11.6918 C167.5659,11.6918 167.8399,11.3938 167.8089,11.0478 C167.6079,8.8278 166.7009,8.2678 164.2779,8.2678 L164.2779,8.2678 Z M161.2139,13.7528 C160.8659,13.7528 160.5959,14.0528 160.6249,14.3998 C160.8909,17.5848 162.5669,18.2518 164.8019,18.2518 C165.8149,18.2518 166.5909,18.1788 167.2309,18.0458 C167.5059,17.9888 167.7019,17.7468 167.7019,17.4668 L167.7019,16.1138 C167.7019,15.7868 167.9669,15.5228 168.2929,15.5228 L170.0989,15.5228 C170.4259,15.5228 170.6909,15.7868 170.6909,16.1138 L170.6909,19.2728 C170.6909,19.5458 170.5039,19.7818 170.2389,19.8478 C169.0069,20.1518 167.1809,20.5138 164.7439,20.5138 C159.8659,20.5138 157.4569,18.6858 157.4569,13.2588 C157.4569,7.6868 160.0409,6.0028 164.3629,6.0028 C169.2419,6.0028 170.9529,7.4568 170.9529,12.3878 L170.9529,13.1608 C170.9529,13.4878 170.6879,13.7528 170.3619,13.7528 L161.2139,13.7528 Z" id="Fill-23" fill="#8F918A" sketch:type="MSShapeGroup"></path>
                <path d="M172.0319,19.6065 L172.0319,18.2905 C172.0319,17.9645 172.2969,17.6995 172.6229,17.6995 L173.9079,17.6995 C174.2349,17.6995 174.4999,17.4345 174.4999,17.1085 L174.4999,3.8655 C174.4999,3.5395 174.2349,3.2745 173.9079,3.2745 L172.6229,3.2745 C172.2969,3.2745 172.0319,3.0095 172.0319,2.6835 L172.0319,1.3415 C172.0319,1.0155 172.2969,0.7505 172.6229,0.7505 L176.9849,0.7505 C177.3119,0.7505 177.5769,1.0155 177.5769,1.3415 L177.5769,17.1085 C177.5769,17.4345 177.8409,17.6995 178.1679,17.6995 L179.6829,17.6995 C180.0099,17.6995 180.2739,17.9645 180.2739,18.2905 L180.2739,19.6065 C180.2739,19.9335 180.0099,20.1975 179.6829,20.1975 L172.6229,20.1975 C172.2969,20.1975 172.0319,19.9335 172.0319,19.6065" id="Fill-25" fill="#8F918A" sketch:type="MSShapeGroup"></path>
                <path d="M187.6236,20.4576 C185.8366,20.4576 183.7816,20.2606 181.9976,19.8686 C181.7246,19.8086 181.5296,19.5686 181.5296,19.2896 L181.5296,16.1136 C181.5296,15.7876 181.7936,15.5226 182.1206,15.5226 L183.8676,15.5226 C184.1946,15.5226 184.4596,15.7876 184.4596,16.1136 L184.4596,17.5076 C184.4596,17.8026 184.6786,18.0536 184.9716,18.0936 C186.0306,18.2386 186.8696,18.2826 187.6236,18.2826 C190.8756,18.2826 191.1336,17.8726 191.1336,16.2186 C191.1336,14.8556 190.4666,14.7096 187.5366,14.4476 C182.7196,13.9826 181.3536,13.6656 181.3536,10.1536 C181.3536,7.2516 183.2406,6.0906 187.4806,6.0906 C189.0666,6.0906 191.2246,6.2896 193.0566,6.8276 C193.3096,6.9016 193.4856,7.1326 193.4856,7.3976 L193.4856,10.1996 C193.4856,10.5266 193.2206,10.7906 192.8946,10.7906 L191.1466,10.7906 C190.8206,10.7906 190.5556,10.5266 190.5556,10.1996 L190.5556,9.0726 C190.5556,8.7866 190.3506,8.5396 190.0686,8.4896 C189.0616,8.3106 188.1246,8.2676 187.4506,8.2676 C184.9796,8.2676 184.4036,8.7006 184.4036,10.0096 C184.4036,11.6326 184.8686,11.6046 188.3786,11.8936 C192.9056,12.2446 194.2426,12.9086 194.2426,16.0746 C194.2426,19.7596 192.2106,20.4576 187.6236,20.4576" id="Fill-27" fill="#8F918A" sketch:type="MSShapeGroup"></path>
            </g>
        </g>
    </g>
</svg>